# xmcd
#
# Track frame offsets:
#	151
#	21583
#	39737
#	59083
#	92913
#	122461
#	152163
#	155744
#
# Disc length: 2437 seconds
#
# Revision: 0
# Processed by: cddbd v1.5.1PL0 Copyright (c) Steve Scherf et al.
# Submitted via: audiograbber 1.83.01
#
DISCID=6e098308
DTITLE=John Trudell - Tribal Voice
DYEAR=1983
DGENRE=Native American
TTITLE0=Listening (Honor Song)
TTITLE1=Voices Catching Up (Lompoe Song)
TTITLE2=Heart Taker (Owl Dance)
TTITLE3=Living In Reality (Oklahoma Song)
TTITLE4=The Cleansing (Red Earth Song)
TTITLE5=I Went So Willingly (49)
TTITLE6=The Ones Who Know Me
TTITLE7=Look At Us (Peltier-AIM Song)
EXTD=
EXTT0=
EXTT1=
EXTT2=
EXTT3=
EXTT4=
EXTT5=
EXTT6=
EXTT7=
PLAYORDER=
